<svg width="128" height="128" xmlns="http://www.w3.org/2000/svg">

 <title/>
 <g>
  <title>background</title>
  <rect fill="none" id="canvas_background" height="402" width="582" y="-1" x="-1"/>
 </g>
 <g>
  <title>Layer 1</title>
  <path fill="#ffc298" id="svg_1" d="m105.38,28.89l-0.56,4.27s4.93,5 8,-0.16c-1.5,-4.11 -0.28,-6.61 -0.28,-6.61l-0.21,-2.45l-4.34,0.5l-2.61,4.45z" class="cls-1"/>
  <path fill="#ffc298" id="svg_2" d="m108.49,29.63a9,9 0 0 0 4.33,-5.69c0.5,-2.83 0.5,-5.22 -1.5,-7.89s-9.72,-2.11 -10,-1.66c-2,3.37 -0.45,12.15 1.29,14.48c1.53,2.04 5.88,0.76 5.88,0.76z" class="cls-1"/>
  <path fill="#892e1d" id="svg_3" d="m97.76,12.8a4,4 0 0 0 2.64,4.81c3.47,1.28 7.22,-1.3 7.22,-1.3a14.72,14.72 0 0 0 4.92,10.08c4.28,-1.09 6.53,-11.56 -0.69,-15.15a9,9 0 0 0 -11.76,2.49l-2.33,-0.93z" class="cls-2"/>
  <path fill="#ffc298" id="svg_4" d="m109.91,25s2,-0.62 2,-2.36s-1,-2.42 -3.57,-1.28" class="cls-1"/>
  <path fill="#ffc298" id="svg_5" d="m100,51c-0.1,4.6 -0.29,9.21 -0.43,13.82l-0.28,6.91q-0.13,3.45 -0.32,6.91a2.36,2.36 0 0 1 -4.7,0.08c-0.21,-2.3 -0.4,-4.59 -0.57,-6.89l-0.51,-6.83c-0.31,-4.6 -0.67,-9.2 -0.94,-13.8a3.89,3.89 0 0 1 7.77,-0.45c-0.02,0.08 -0.02,0.19 -0.02,0.25z" class="cls-1"/>
  <rect fill="#172a91" id="svg_6" y="70.75" x="96.65" width="24.01" height="1.85" class="cls-3"/>
  <polygon fill="#2652e4" id="svg_7" points="96.65 72.6 99.32 122.38 106.81 123.38 108.32 81.41 109.49 81.63 110.5 123.38 117.98 122.38 120.66 72.6 96.65 72.6" class="cls-4"/>
  <rect fill="#bde5ec" id="svg_8" y="46.45" x="96.65" width="24.01" height="24.3" class="cls-5"/>
  <path fill="#ffc298" id="svg_9" d="m127,51.32c-0.43,4.59 -1,9.18 -1.43,13.77l-0.76,6.91q-0.37,3.44 -0.81,6.88a2.36,2.36 0 0 1 -4.7,-0.26q-0.06,-3.47 -0.07,-6.92l0,-6.93c0,-4.61 0,-9.23 0.06,-13.84a3.9,3.9 0 1 1 7.71,0.07c0,0.11 0,0.22 0,0.32z" class="cls-1"/>
  <path fill="#bde5ec" id="svg_10" d="m104.85,31l7.61,0a2.66,2.66 0 0 1 2.66,2.66l0,7.5a0,0 0 0 1 0,0l-12.93,0a0,0 0 0 1 0,0l0,-7.5a2.66,2.66 0 0 1 2.66,-2.66z" class="cls-5"/>
  <path fill="#bde5ec" id="svg_11" d="m105.69,32.9l6.43,0a15,15 0 0 1 15,15l0,5.1a0,0 0 0 1 0,0l-34.93,0a0,0 0 0 1 0,0l0,-6.6a13.5,13.5 0 0 1 13.5,-13.5z" class="cls-5"/>
  <polygon fill="#172a91" id="svg_12" points="126.82 128 110.5 128 110.5 123.38 118.27 122.38 125.3 124.69 126.82 128" class="cls-3"/>
  <polygon fill="#172a91" id="svg_13" points="90.49 128 106.81 128 106.81 123.38 99.03 122.38 92 124.69 90.49 128" class="cls-3"/>
  <polygon fill="#aa4628" id="svg_14" points="16.17 125.27 21.41 125.27 25.03 93.74 16.96 89.27 16.17 125.27" class="cls-6"/>
  <path fill="#aa4628" id="svg_15" d="m38.59,47.61l8.62,10.39l-2.21,-0.85l13.7,-0.3a1.77,1.77 0 0 1 0.3,3.51l-13.5,2.2a2.3,2.3 0 0 1 -1.9,-0.56l-0.3,-0.26l-10,-9a3.7,3.7 0 0 1 4.94,-5.52a4.64,4.64 0 0 1 0.35,0.39z" class="cls-6"/>
  <polygon fill="#bde5ec" id="svg_16" points="8.77 128.01 21.77 128.01 21.77 123.39 16.32 123.39 11.09 125.75 8.77 128.01" class="cls-5"/>
  <polygon fill="#aa4628" id="svg_17" points="40.35 125.27 35.12 125.27 31.49 93.74 39.57 89.27 40.35 125.27" class="cls-6"/>
  <path fill="#bde5ec" id="svg_18" d="m40.72,101.86l-29.37,0c7.55,-10.86 2.82,-32.86 8.56,-38.57l17.54,0l3.27,38.57z" class="cls-5"/>
  <circle fill="#3b0b1b" id="svg_19" r="4.77" cy="34.29" cx="21.01" class="cls-7"/>
  <circle fill="#3b0b1b" id="svg_20" r="4.77" cy="21.71" cx="30.32" class="cls-7"/>
  <circle fill="#3b0b1b" id="svg_21" r="4.77" cy="21.71" cx="22.88" class="cls-7"/>
  <circle fill="#3b0b1b" id="svg_22" r="4.77" cy="27.35" cx="18.9" class="cls-7"/>
  <path fill="#aa4628" id="svg_23" d="m32.26,23.64s2.37,8.65 0.89,10.87s-9.36,0.42 -9.36,0.42a13.58,13.58 0 0 1 -0.62,-2.81c-0.1,-0.7 -0.2,-1.54 -0.27,-2.53c-0.3,-3.87 4.75,-11.44 9.36,-5.95z" class="cls-6"/>
  <polygon fill="#aa4628" id="svg_24" points="24.08 40.73 30.03 41.03 28.26 33.3 22.88 28.67 24.08 40.73" class="cls-6"/>
  <path fill="#2652e4" id="svg_25" d="m37.63,63.37l-17.8,0l-0.93,-15a9.37,9.37 0 0 1 9.36,-9.37l0,0a9.37,9.37 0 0 1 9.37,9.37l0,15z" class="cls-4"/>
  <path fill="#3b0b1b" id="svg_26" d="m33,25.33c-1.09,0.49 -5.05,-0.89 -5.05,-0.89a1.75,1.75 0 0 1 0,2.37a4,4 0 0 1 -2.95,1.59s-2.85,2.6 -1,3.72s1.87,4.76 -0.2,6a8,8 0 0 1 -4,-6.57l0.2,-5.55l1.49,-3.17l3.47,-1.49l5.1,-0.29l2.52,-0.79l0.42,5.07z" class="cls-7"/>
  <polygon fill="#bde5ec" id="svg_27" points="47.75 128.01 34.76 128.01 34.76 123.39 40.21 123.39 45.43 125.75 47.75 128.01" class="cls-5"/>
  <path fill="#aa4628" id="svg_28" d="m22.56,48.89l-3.14,14.77l-2.6,-3l14.79,0.87a1.76,1.76 0 0 1 0,3.52l-14.79,0.87a2.49,2.49 0 0 1 -2.63,-2.34a1.5,1.5 0 0 1 0,-0.3l0,-0.35l1,-15.06a3.7,3.7 0 1 1 7.39,0.5a4.34,4.34 0 0 1 -0.02,0.52z" class="cls-6"/>
  <path fill="#2652e4" id="svg_29" d="m28.27,39l-2.8,0a10.48,10.48 0 0 0 -10.47,10.49l0,0.89l25.73,-0.21c-2.19,-5.48 -6.18,-11.17 -12.46,-11.17z" class="cls-4"/>
  <rect fill="none" id="svg_30" width="128" height="128" class="cls-8"/>
  <line stroke-dasharray="12 6" stroke-width="6px" stroke-miterlimit="10" stroke="#e44450" fill="none" id="svg_31" y2="125" y1="6" x2="64" x1="64" class="cls-9"/>
 </g>
</svg>